<?xml version="1.0" encoding="UTF-8" standalone="no"?>
<svg
   xmlns:dc="http://purl.org/dc/elements/1.1/"
   xmlns:cc="http://creativecommons.org/ns#"
   xmlns:rdf="http://www.w3.org/1999/02/22-rdf-syntax-ns#"
   xmlns:svg="http://www.w3.org/2000/svg"
   xmlns="http://www.w3.org/2000/svg"
   xmlns:sodipodi="http://sodipodi.sourceforge.net/DTD/sodipodi-0.dtd"
   xmlns:inkscape="http://www.inkscape.org/namespaces/inkscape"
   width="190px"
   height="66px"
   viewBox="0 0 190 66"
   version="1.1"
   id="svg58"
   sodipodi:docname="logo-etap.svg"
   inkscape:version="0.92.4 (5da689c313, 2019-01-14)">
  <metadata
     id="metadata62">
    <rdf:RDF>
      <cc:Work
         rdf:about="">
        <dc:format>image/svg+xml</dc:format>
        <dc:type
           rdf:resource="http://purl.org/dc/dcmitype/StillImage" />
      </cc:Work>
    </rdf:RDF>
  </metadata>
  <sodipodi:namedview
     pagecolor="#ffffff"
     bordercolor="#666666"
     borderopacity="1"
     objecttolerance="10"
     gridtolerance="10"
     guidetolerance="10"
     inkscape:pageopacity="0"
     inkscape:pageshadow="2"
     inkscape:window-width="2560"
     inkscape:window-height="1057"
     id="namedview60"
     showgrid="false"
     inkscape:zoom="5.6419678"
     inkscape:cx="86.215971"
     inkscape:cy="5.6590455"
     inkscape:window-x="-8"
     inkscape:window-y="-8"
     inkscape:window-maximized="1"
     inkscape:current-layer="header" />
  <!-- Generator: Sketch 42 (36781) - http://www.bohemiancoding.com/sketch -->
  <title
     id="title2">logoetap-logo</title>
  <desc
     id="desc4">Created with Sketch.</desc>
  <defs
     id="defs6" />
  <g
     id="Symbols"
     stroke="none"
     stroke-width="1"
     fill="none"
     fill-rule="evenodd">
    <g
       id="header"
       transform="translate(0.000000, -3.000000)">
      <path
         style="fill:#003399"
         d="M 47.410457,15.910974 H 32.798865 v -2.559795 h 32.614914 v 2.559795 H 50.800872 v 33.121647 h -3.390415"
         id="Fill-354"
         inkscape:connector-curvature="0" />
      <path
         d="M 92.656228,34.195471 85.121315,17.999863 77.584429,34.195471 Z M 84.489516,13.27702 h 1.266228 L 102.89782,49.031373 H 99.561972 L 93.750208,36.78548 H 76.492422 l -5.81045,12.245893 h -3.333875 z"
         id="Fill-356"
         inkscape:connector-curvature="0"
         style="fill:#003399" />
      <path
         d="m 123.99236,29.934862 h -5.80125 V 15.903617 h 6.37651 c 6.09643,0 9.31986,2.402147 9.31986,7.000186 0,4.963255 -3.1636,7.210382 -9.89512,7.031059 m 0.40235,-16.581843 c 8.57301,0 12.94432,3.290882 12.94432,9.559323 0,5.744922 -4.48899,9.506775 -11.56567,9.506775 h -7.58225 v 16.613372 h -3.34637 v -35.67947 z"
         id="Combined-Shape"
         inkscape:connector-curvature="0"
         style="fill:#003399" />
      <path
         style="fill:#003399"
         d="M 0.24621107,13.351114 H 21.530813 v 2.53549 H 3.6188754 V 29.68729 H 20.955554 v 2.536804 H 3.6491177 V 46.388682 H 21.989706 v 2.642559 H 0.24621107"
         id="Fill-362"
         inkscape:connector-curvature="0" />
      <path
         style="opacity:0.90000006;stroke:#003399;stroke-width:0.28400001"
         d="m 153.42599,49.127274 h 35.75155 V 13.407078 h -35.75155 z"
         id="Stroke-353"
         inkscape:connector-curvature="0" />
      <g
         id="Page-1"
         transform="translate(152,3)"
         style="fill:#ffcc00">
        <path
           d="m 15.4575,17.5145 v 0.206 h -0.208 v 0.205 h -0.218 v 0.208 h -0.18 v 0.205 h -0.207 v 0.207 h -0.207 v 0.207 h -0.218 v 0.217 h -0.196 v 0.205 h -0.216 v 0.196 h -0.197 v 0.423 h -0.203 v 0.399 h -0.232 v -0.191 h -0.196 v 0.398 h -0.206 v 0.63 h -0.409 v 0.62 h -0.415 v 0.387 h -0.424 v 1.043 h -0.195 v 0.203 h -0.218 v 0.21 h -0.194 v 0.412 h -0.22 v 0.204 h -0.207 v 0.207 h -0.188 v 0.412 h -0.196 v 0.205 h -0.221 v 0.206 h -0.19 v 0.208 h 0.19 v 0.206 h -0.206 v 0.192 h -0.205 v 0.413 h -0.194 v 0.219 h -0.206 v 0.22 h -0.207 v 0.605 h -0.208 v 0.205 h -0.204 v 0.205 h -0.207 v 0.194 h 0.193 v 0.632 h 0.207 v -0.207 h 0.206 v 0.207 h -0.206 v 0.204 h -0.207 v 0.22 h -0.422 v -0.22 h -0.197 v 0.413 h 0.208 v 0.195 h -0.208 v -0.195 h -0.218 v 0.208 h -0.179 v 0.217 l -0.234,-0.014 v 0.415 h -0.191 v 0.616 h -0.4 v 0.206 h 0.205 v 0.413 h -0.205 v 0.207 h -0.635 v 0.403 l 0.429,0.008 v 0.204 h -0.429 v 0.207 h -0.204 v 0.827 h -0.425 v 0.821 h -0.387 v 0.428 h -0.206 v 0.195 h -0.206 v 0.421 h -0.415 v 0.207 h -0.204 v 0.399 h -0.207 v 0.413 h -0.218 v 0.206 h 0.207 v 0.18 h 0.205 v 0.438 h -0.22 v -0.219 h -0.192 v 0.632 h 0.207 v 0.204 h -0.415 v 0.205 h 0.208 v 0.401 h 0.399 v 0.218 h 0.22 v 0.222 h -0.207 v 0.192 h 0.413 v 0.207 h -0.633 v -0.399 h -0.204 v -0.222 h -0.207 v -0.411 h -0.195 v -0.413 h -0.193 v 0.205 h -0.228 v 0.208 h 0.203 v 0.207 h 0.218 v 0.204 h -0.41 v 0.197 h -0.208 v 1.865 h 0.208 v 0.196 h 0.192 v 0.216 h -0.192 v -0.216 h -0.208 v 0.423 h -0.206 v 0.204 h -0.206 v 0.618 h -0.22 v -0.602 h -0.398 v -0.839 h -0.209 v 1.648 h 0.4 v 0.605 h 0.207 v 0.234 h -0.207 v -0.234 h -0.18 v 0.425 h -0.437 v -0.412 h -0.196 v 0.81 h 0.413 v -0.19 h 0.194 v 0.19 h -0.194 v 0.221 h -0.203 v 0.412 h 0.203 l -0.012,0.619 h -0.401 v -0.206 h -0.204 v -0.219 h -0.207 v -0.399 h -0.204 v 0.824 H -5e-4 v 0.206 h 0.196 v 0.205 h 0.204 v 0.413 h 0.194 v -0.207 h 0.207 v -0.206 h 0.206 v 0.194 h 0.217 v -0.399 h 0.194 v -0.617 h 0.221 v -0.208 h -0.206 v -0.205 h 0.425 v 0.192 h 0.386 v -0.206 h -0.193 v -0.401 h -0.206 v -0.203 h 0.206 v 0.203 h 0.412 v -0.424 h 0.594 v -0.191 h -0.594 v -0.221 h 0.208 v -0.19 h 0.192 v 0.19 h 0.218 v -0.398 h 0.402 v -0.825 h 0.424 v 0.411 h 0.4 v -0.206 h -0.207 v -0.205 h 0.207 v -0.602 h -0.193 v -0.415 h -0.207 v 0.399 h -0.205 v 0.411 h -0.219 v -0.218 h -0.207 v -0.605 h -0.195 v -0.221 h 0.206 v -0.192 h 0.415 v -0.217 h 0.205 v 0.423 h 0.193 v -0.206 h 0.22 v 0.413 h 0.195 v -0.413 h 0.218 v -0.205 h -0.218 v -0.206 h -0.415 v -0.412 h 0.22 v 0.207 h 0.413 v 0.191 h 0.411 v 0.208 h 0.4 v -0.194 h 0.208 v -0.205 h -0.414 v -0.222 h 0.206 v -0.203 h 0.208 v -0.194 h 0.205 v -0.205 -0.012 l -0.205,0.012 v -0.209 h -0.208 v -0.824 h 0.208 v 0.824 h 0.205 v 0.197 0.012 h 0.217 v 0.602 h 0.207 v -0.614 h 0.192 v -0.415 h -0.192 v -0.193 h 0.192 v 0.193 h 0.208 v -0.206 h 0.204 v -0.195 h -0.822 v 0.43 h -0.196 v -0.646 h 1.035 v -0.193 h -0.221 v -0.206 h 0.221 v -0.207 h 0.399 l -0.001,0.016 h 0.013 v 0.191 h 0.4 v -0.414 h -0.193 v -0.617 h 0.193 v -0.208 h 0.219 v 0.208 h -0.219 v 0.206 h 0.426 v -0.219 l 0.204,0.013 v -0.631 h 0.207 v -0.415 h 0.412 v -0.604 h 0.208 v -0.206 h 0.206 v -0.233 h 0.205 v -0.19 h 0.206 v -0.811 h 0.417 v 0.191 h 0.603 v -0.618 h 0.206 v -0.413 h 0.425 v -0.192 h -0.207 v -0.205 h -0.205 v -0.206 h 0.205 v 0.206 h 0.207 v -0.22 h 0.194 v -0.398 h 0.207 v -0.22 h 0.218 v -0.194 h 0.208 v -0.207 h 0.204 v -0.423 h 0.205 v -0.414 l 0.413,0.013 v -0.631 h 0.206 v -0.193 h 0.196 v 0.208 h 0.219 v -0.412 h 0.192 v -0.412 h 0.208 v -0.824 h 0.216 v -0.207 h 0.413 v 0.207 h 0.208 v -0.619 h 0.205 v -0.619 h 0.208 v -0.205 h 0.205 v -0.221 h 0.21 v -0.399 h 0.204 v -0.206 h 0.205 v -0.409 h 0.205 v -0.442 h 0.195 v -0.384 h 0.22 v -0.205 h -0.22 v -0.21 h 0.22 v 0.195 h 0.205 v -0.616 h 0.204 v -0.207 h 0.621 v -0.194 h 0.204 v -0.631 h 0.206 v -0.398 h 0.207 v 0.191 h 0.207 v -0.411 h 0.192 v -0.413 h 0.208 v -0.207 h 0.221 v -0.192 h 0.206 v -0.207 h 1.031 v 0.207 h 0.412 v 0.192 h 0.4 v -0.177 h -0.207 v -0.426 h -0.398 v -0.207 h -0.221 v -0.205 h -0.194 v -0.206 h -0.411 v -0.208 h -0.426 v -0.193 h -0.192 v -0.217 h -0.429 v -0.207 h -0.409 v -0.195 h -0.403 v -0.207 h -0.216 v -0.205 h -0.609 v -0.218 h -0.424 v -0.206 z m -4.551,5.768 h 0.206 v -0.189 h -0.206 z m -2.886,5.359 h 0.192 v -0.203 h -0.192 z m 4.344,2.049 h 0.204 v -0.193 h -0.204 z m -0.208,0.22 h 0.208 v -0.22 h -0.208 z m -6.405,1.015 h 0.215 v -0.2 l -0.215,-0.005 z m -0.608,1.046 h 0.193 v -0.399 h -0.193 z m 4.964,-0.015 v 0.425 h 0.4 v -0.203 h -0.204 v -0.222 z m -0.221,0.62 v 0.423 h 0.207 v -0.207 h 0.21 v -0.216 z m -6.6,2.884 h 0.208 v -0.399 h -0.208 z m -0.835,1.041 h 0.208 v -0.205 h -0.208 z m 0,0.401 h 0.208 v -0.193 h -0.208 z m 2.063,2.487 h 0.218 v -0.207 h -0.218 z m -3.688,1.441 v 0.402 h 0.194 v -0.195 h 0.203 v -0.207 z m -0.631,1.042 v 0.185 h 0.204 v 0.201 h 0.207 v -0.386 z m 0.411,0.607 h 0.204 v -0.221 h -0.204 z m 0,0.207 v 0.399 h 0.414 v -0.194 h -0.22 v -0.205 z"
           id="path44"
           inkscape:connector-curvature="0" />
        <path
           d="m 20.4057,-4e-4 v 0.208 h -0.205 v 0.22 h -0.206 v 0.19 h -0.196 v 0.206 h -0.218 v 0.414 h -0.204 v 0.203 h -0.415 v 0.413 h -0.206 v 0.207 h -0.398 v 0.218 h -0.205 v 0.399 h -0.223 v 0.22 h -0.208 v 0.399 h -0.192 v 0.219 h -0.219 v 0.388 h 0.219 v 0.203 h -0.219 v 0.219 h -0.204 v 0.209 h -0.195 v 1.441 h 0.181 v 0.22 h -0.193 v -0.22 h -0.218 v -0.206 h -0.208 v 0.206 h -0.192 v 0.207 h -0.207 v 0.192 h -0.204 v 0.632 h 0.204 v 0.191 h -0.617 v 0.851 h -0.426 v 1.442 h -0.197 v 0.388 h -0.203 v 0.422 h -0.425 v 0.414 h -0.196 v 0.422 h -0.192 v -0.2 h -0.219 v 0.603 h -0.207 v 0.219 h -0.398 v 0.399 h -0.62 v 0.605 h -0.219 v 0.205 h 0.412 v 0.206 h -0.412 v -0.192 h -0.219 v 0.207 h -0.195 v 0.396 h 0.195 v -0.192 h 0.219 v 0.426 h -0.618 v 0.813 h -0.209 v 0.205 l -0.205,0.015 v 0.409 h -0.207 v 0.594 h -0.22 v -0.388 h -0.205 v -0.216 h -0.384 v 0.191 h 0.194 v 0.22 h -0.621 v 0.206 h -0.207 v 0.207 h 0.606 v 0.202 h -0.193 v 0.208 h -0.206 v 0.206 h -0.207 v 0.206 h -0.206 v 0.193 h -0.206 v 0.205 h 0.193 v -0.205 h 0.208 v 0.22 h 0.207 v -0.413 h 0.204 v -0.206 h 0.22 v 0.193 h -0.207 v 0.426 h -0.217 v 0.193 h 0.217 v 0.22 h -0.424 v -0.428 h -0.208 v 0.633 h -0.411 v 0.206 h 0.411 v 0.191 h 0.839 v 0.427 h -0.424 v -0.193 h -0.196 v 0.193 h -0.192 v 0.206 h -0.22 v 0.205 h -0.218 v 0.208 h -0.194 v 0.221 h -0.207 v 0.19 h -0.219 v -0.411 h -0.411 v 0.411 h -0.219 v -0.206 h -0.389 v -0.193 h -0.203 v 0.8 h 0.811 v 0.411 h -0.4 v 0.219 h -0.208 v 0.206 h 0.415 v -0.206 h 0.204 v 0.192 h 0.4 v -0.192 h -0.193 v -0.63 h 0.412 v -0.401 h 0.193 v 0.823 h 0.22 v 0.414 h 0.4 v -0.22 h -0.194 v -1.22 h -0.218 v -0.207 h 0.424 v 0.396 h 0.195 v 0.223 h 0.207 v 0.202 h 0.837 v -0.202 h -0.205 v -0.207 h 0.395 v -0.621 h 0.208 v 0.209 h 0.219 v -0.209 h 0.205 v -0.425 h 0.413 v -0.413 h 0.206 v -0.191 h -0.206 v -0.193 l 0.401,-0.013 v -0.205 h -0.206 v -0.618 h -0.206 v -0.208 h 0.217 v 0.208 h 0.195 v -0.62 h -0.195 v -0.41 h 0.415 v -0.413 h 0.425 v 0.206 h 0.179 v 0.399 h 0.426 v -0.192 h 0.207 v -0.207 h 0.208 v -0.206 h 0.203 v 0.605 h 0.196 v -0.81 h -0.207 v -0.206 h 0.426 v 0.396 h 0.206 v -0.409 h 0.203 v -0.196 h 0.208 v -0.424 h 0.415 v -0.189 h -0.208 v -0.417 h 0.811 v -0.629 h 0.413 v -0.209 h 0.218 v -0.206 h 0.208 v 0.206 h 0.411 v -0.399 h 0.193 l 0.015,-0.411 h 0.605 v -0.206 h -0.194 v -0.207 h 0.206 v -0.204 h 0.195 v -0.62 h 0.218 v -0.204 h 0.413 v 0.203 l -0.415,0.013 v 0.401 h 0.211 v -0.22 h 0.206 v -0.193 h 0.192 v -0.204 h 0.411 v -0.208 h 0.222 v -0.414 h 0.195 v -0.409 h 0.217 v -0.426 h 0.398 v -0.194 h -0.193 v -0.216 h 0.621 v -0.21 h 0.203 v -0.823 h 0.41 v -0.399 h 0.208 v -0.216 h 0.208 v -0.195 h 0.205 v 0.206 h 0.192 v -1.456 h 0.224 v 0.22 h 0.203 v -0.22 h 0.402 v -0.411 h 0.422 v -0.412 h 0.208 v -0.605 h 0.206 v 0.194 h 0.207 v -0.221 h 0.192 v -0.192 h 0.22 v -0.209 h 0.208 v -0.396 h 0.411 v -0.219 h 0.414 v -0.195 h 0.189 v -0.41 h 0.413 v 0.204 h 0.634 v 0.206 h 0.411 v 0.209 h 0.207 v 0.205 h 0.398 v -0.205 h -0.19 v -0.209 h -0.208 v -0.206 h -0.207 v -0.204 h -0.411 v -0.195 h -0.426 v -0.426 h -0.413 v -0.205 h -0.397 v -0.207 h -0.208 v -0.205 h -0.424 v -0.208 h -0.208 v -0.19 h -0.398 v -0.207 h -0.207 v -0.205 h -0.413 v -0.221 h -0.423 v -0.19 h -0.621 v -0.208 h -0.827 v -0.22 z m 2.474,6.388 h 0.195 v -0.205 h -0.195 z m -8.454,3.089 h 0.206 v -0.41 h -0.206 z m -0.207,0 v 0.402 h 0.413 v -0.192 h -0.206 v -0.21 z m -2.477,3.505 h 0.195 v -0.207 h -0.195 z m 0.621,3.295 h 0.192 v -0.202 h -0.192 z m -0.22,1.033 h 0.205 v -0.205 h -0.205 z m -4.537,1.444 v 0.41 h -0.206 v -0.194 h -0.195 v 0.401 h 0.608 v -0.22 h 0.218 v -0.192 h -0.234 v -0.205 z m 0.837,2.473 h 0.193 v -0.621 h -0.193 z"
           id="path46"
           inkscape:connector-curvature="0" />
        <path
           d="m 18.5625,36.0489 h -0.205 v -0.193 h -0.222 v 0.193 h -0.206 v 0.425 h -0.205 v -0.618 h 0.205 v -0.615 h -0.216 v 0.395 h -0.195 v 0.413 h -0.208 v 0.425 h 0.195 v 0.208 h 0.208 v 0.4 h 0.412 v -0.194 h -0.607 l -0.013,1.004 h -0.195 v -0.194 h -0.204 v -0.194 h -0.62 v -0.206 h 0.413 v 0.618 h 0.194 v 0.194 h -0.194 v 0.22 h -0.413 v 0.398 h -0.203 v 0.413 h -0.207 v -0.193 h -0.411 v 0.207 h -0.208 v 0.204 h 0.208 v 0.812 h -0.221 v 1.237 h -0.195 v -0.401 h -0.413 v -0.204 h -0.206 v -0.398 h 0.196 v -0.22 h -0.401 v -0.415 h -0.206 v -0.425 h 0.206 v -0.204 h 0.197 v -0.811 h -0.197 v 0.207 h -0.206 v 0.205 h 0.633 v -0.217 h 0.191 v -0.195 h 0.206 v 0.398 h 0.623 v -0.606 h 0.188 v 0.208 h 0.207 v -0.632 h -0.207 v 0.208 h -0.603 v -0.196 h -0.22 v 0.412 h -0.206 v -0.412 h -0.195 v -1.028 h 0.401 v -0.208 h -0.401 v -0.217 h -0.192 v -0.208 h 0.208 v -0.193 h 0.397 v -0.427 h 0.208 v -0.399 h 0.192 v 0.399 h 0.223 v -0.809 h -0.207 v 0.206 h 0.618 v -0.411 h -0.411 v -0.22 h 0.204 v -0.207 h 0.207 v -0.605 h 0.203 v -0.205 h 0.196 v 0.205 h 0.628 v 0.196 h -0.204 v -0.608 h -0.232 v 0.207 h -0.181 v -0.618 h 0.4 v 0.207 h -0.206 v -0.62 h -0.194 v -0.207 h 0.206 v -0.41 h 0.207 v -0.415 h 0.219 v -0.191 h 0.388 v -0.427 h -0.195 v -0.41 h 0.206 v 0.205 h 0.195 v 0.205 h 0.423 v -0.41 h 0.221 v -0.205 h -0.221 v -0.221 h -0.19 v -0.206 h 0.19 v -0.811 h 0.208 v 0.205 h 0.22 v -1.854 h 0.203 v -0.219 h 0.196 v -0.206 h -0.196 v -0.191 h 0.416 v -0.415 h 0.204 v -0.617 h 0.208 v -0.427 h 0.205 v -0.396 h 0.218 v -0.195 h 0.181 v -0.424 h 0.218 v -0.219 h 0.181 v -1.224 h 0.428 v -0.412 h 0.207 v -0.206 h 0.424 v -0.425 h 0.192 v -0.206 h 0.207 v -0.399 h 0.234 v -0.427 h 0.192 v -0.618 h 0.399 v -1.03 h 0.607 v -1.016 h 0.23 v -0.194 h 0.195 v -0.618 h 0.218 v -0.206 h 0.206 v -0.427 h 0.403 v -0.629 h 0.216 v -0.399 h 0.208 v -0.207 h 0.203 v -0.205 h 0.197 v -0.399 h 0.216 v -0.22 h 0.208 v -0.193 h 0.399 v -0.413 h 0.204 v -0.425 h -0.204 v 0.207 h 0.428 v -0.62 h 0.189 v -0.204 h 0.222 v -0.207 h 0.192 v -0.218 h 0.22 v -0.208 h 0.195 v -0.191 h 0.204 v -0.208 h 0.219 v -0.217 h 0.192 v -0.195 h 0.426 v -0.204 h 0.411 v -0.207 h 2.038 v 0.207 h 0.426 v 0.204 h 0.621 v 0.206 h 0.617 v 0.219 h 0.205 v 0.195 h 0.196 v 0.206 h -0.607 v 0.593 h -0.207 v 0.217 h -0.204 v 0.4 h -0.222 v 0.423 h -0.399 v 0.633 h -0.41 v 0.619 h -0.206 v -0.206 h -0.207 v 0.618 h -0.206 v 0.204 h -0.207 v 0.4 h -0.207 v 0.22 h 0.196 v 0.192 h -0.404 v 0.231 h 0.208 v 0.182 h -0.208 v 0.207 h -0.41 v 0.411 h -0.206 v 0.205 l -0.22,0.015 v 0.604 h -0.399 v -0.193 h 0.208 v 0.606 h -0.426 v -0.195 h 0.204 v 0.415 h -0.193 v 0.191 h -0.218 v 0.399 h -0.194 v 0.645 h -0.411 v -0.208 h 0.191 v 0.413 h -0.191 v 0.193 h -0.208 v 0.631 h -0.207 v 0.401 h -0.216 v 0.218 h -0.198 v 0.402 h -0.203 v 0.204 h -0.219 v -0.193 h -0.195 v 0.799 h -0.206 v 0.232 h -0.193 v 0.191 h -0.234 v 0.607 h -0.206 v 0.425 h -0.808 v -0.399 h 0.193 v 1.223 h 0.206 v -0.195 h -0.413 v 0.195 h -0.195 v 0.822 h -0.205 v 0.207 h -0.413 v 0.413 h -0.218 v 0.425 h -0.207 v 0.194 h -0.194 v 0.207 h -0.207 v 0.618 h -0.206 v 0.63 h -0.412 v 0.386 h 0.194 v -0.181 h -0.399 v 0.606 h 0.191 v -0.191 h -0.399 v 0.203 h -0.207 v 0.81 h -0.208 v 0.427 h -0.206 v -0.207 h -0.202 v 0.401 h -0.413 v 0.837 h -0.208 v 0.812 h -0.206 v 0.411 h -0.422 v 0.208 h -0.196 v 0.217 h 0.196 v 0.196 h -0.196 v 0.409 h -0.206 v 0.207 h -0.206 v 0.22 h -0.204 v 0.411 h -0.209 v 0.204 h -0.222 v 0.211 h 0.222 v 0.188 h -0.222 v 0.62 h -0.191 v 0 0 0.208 h -0.193 v -0.208 z"
           id="polygon48"
           inkscape:connector-curvature="0" />
        <path
           d="m 29.2878,19.5755 v 0.206 h -0.208 v 0.205 h -0.435 v 0.208 h -0.181 v 0.399 h -0.207 v 0.411 h -0.217 v 0.618 h -0.208 v 0.631 h -0.194 v 0.619 h -0.206 v 0.207 h -0.221 v 0.631 h -0.19 v 0.386 h -0.222 v 0.835 h -0.206 v -0.19 h -0.205 v 0.59 h -0.206 v 0.427 h -0.221 v 0.41 h 0.221 v 0.193 h -0.221 v 0.632 h -0.179 v 0.401 h -0.218 v 0.63 h -0.206 v 0.605 h -0.196 v 0.205 h -0.206 v 0.428 h -0.205 v 0.617 h -0.207 v 0.206 h 0.193 v 0.205 h -0.193 v 0.205 h -0.208 v 0.415 h -0.204 v 0.604 h -0.207 v 0.206 h 0.207 v 0.411 h -0.427 v 0.206 h 0.207 v 0.428 h -0.395 v 0.824 h -0.429 v 0.812 h -0.206 v 0.205 h 0.206 v 0.204 h -0.194 v 0.217 h -0.218 v 1.033 h -0.412 v 0.62 h -0.208 v 0.605 h -0.208 v 0.216 h 0.208 v 0.415 h -0.414 v 0.425 h -0.216 v 1.841 h 0.206 v 0.206 h -0.192 v 0.617 h 0.192 v 0.207 h -0.412 v 0.193 h -0.193 v 0.206 h 0.193 v 0.427 h -0.207 v 0.207 h -0.192 v 0.615 h 0.192 v 0.208 h -0.192 v 0.216 h -0.207 v 0.825 h -0.208 v 0.81 h 0.208 v 0.22 h -0.208 v 1.018 h -0.203 v 0.415 h 0.398 v 0.215 h -0.398 v 0.4 h -0.208 v 0.208 h 0.208 v 0.63 h -0.208 v 0.399 h 0.208 v 0.221 h -0.208 v -0.221 h -0.205 v 0.411 h 0.194 v 0.21 h 0.422 v 0.409 h 0.208 v 0.222 h -0.208 v -0.222 h -0.411 v 0.207 h -0.616 v -0.207 h -0.209 v 0.427 l -0.426,-0.009 v 0.202 h 0.838 v -0.206 h 0.208 v 0.206 h 0.413 v -0.206 h 0.203 v 0.615 h 0.415 v 0.208 h 0.605 v -0.218 h -0.196 v -0.194 h -0.409 v -0.205 h 0.399 v -0.219 h -0.193 v -0.619 h 0.203 v -0.206 h 0.402 v -0.207 h -0.402 v -0.191 h 0.412 v -0.631 h 0.206 v -0.207 h 0.195 v -0.207 h -0.195 v -0.811 h 0.208 v 0.204 h 0.208 v 0.62 h 0.412 v -0.413 h -0.205 v -0.207 h 0.205 v -0.204 h 0.206 v 0.204 h -0.206 v 0.207 h 0.206 v 0.194 h 0.411 v -0.411 h 0.207 v -0.194 h 0.205 v 0.619 h 0.207 v -1.03 h 0.194 v -0.618 h -0.401 v 0.205 h 0.197 v 0.205 h -0.207 v 0.415 h -0.195 v -1.045 h 0.205 v -0.207 h -0.412 v -0.206 h 0.197 v -0.618 h -0.197 v -0.193 h 0.207 v -0.423 h -0.207 v -0.196 h 0.207 v 0.196 h 0.205 v -0.196 h 0.207 v 0.196 h 0.207 v -0.208 h 0.194 l 0.014,-0.415 h 0.41 v 0.219 h 0.208 v -0.219 h 0.205 v -0.2 h 0.195 v -0.401 h 0.219 v -0.618 h 0.191 v -0.208 h -0.191 v -0.413 h 0.207 v -0.412 h -0.413 v -0.219 h 0.19 v -0.398 h 0.207 v -0.219 h 0.206 v 0.219 h 0.208 v -0.219 h 0.205 v -0.413 h 0.219 v -0.412 h 0.206 v -0.206 h 0.208 v -0.398 h -0.219 v -0.413 h 0.207 v -0.206 h -0.207 v -0.217 h -0.195 v -0.619 h 0.414 v 0.216 h -0.193 v 0.196 h 0.184 v 0.013 h 0.009 v 0.194 h 0.412 v -0.608 h 0.193 l 0.013,-0.629 0.207,0.013 v -0.414 h 0.192 v -0.826 h -0.204 v -0.216 h 0.22 v -0.414 h 0.203 v -0.192 h -0.411 v 0.192 h -0.207 v -0.192 h 0.207 v -0.826 h -0.207 v -0.203 h 0.207 v 0.203 h 0.208 v 0.62 h 0.411 v -0.426 h 0.194 v -0.41 h -0.194 v -0.195 h 0.194 v 0.195 h 0.217 v -0.195 h 0.207 v -0.411 h -0.207 v -0.412 h 0.207 v -0.427 h 0.195 v -0.208 h 0.424 v -0.203 h -0.206 v -0.206 h -0.218 v -0.399 h 0.218 v 0.399 h 0.206 v -0.604 h 0.413 v -1.031 h 0.203 v -0.607 h -0.214 v -0.218 h 0.214 v -0.22 h 0.208 v -0.219 h 0.207 v -1.221 h 0.208 v 0.191 h 0.192 v -0.399 h 0.221 v -0.205 h 0.19 v -0.413 h -0.207 v -0.192 h 0.428 v -0.618 h 0.205 v -0.22 h -0.205 v -0.207 h 0.205 v -0.206 h -0.205 v -0.207 h 0.205 v 0.207 h 0.206 v -0.413 h 0.193 v -0.203 h -0.193 v -0.193 h 0.207 v -0.208 h 0.206 v -0.411 h 0.205 v -0.631 h 0.208 v -0.618 h 0.193 v -0.411 h 0.218 v -0.403 h 0.207 v -0.423 h 0.205 v -0.193 h 0.197 v -0.413 h -0.827 v -0.191 h -0.424 v -0.22 h -0.402 v -0.208 h -0.604 v -0.205 h -1.447 v -0.206 z m -2.695,20.386 h 0.205 v -0.205 h -0.205 z m -5.566,1.251 h 0.193 v -0.41 h -0.193 z m 4.744,-0.207 h 0.204 v -0.19 h -0.204 z m 0,0.618 h 0.204 v -0.206 h -0.204 z m -0.826,2.061 h 0.194 v -0.208 h -0.194 z m -6.397,5.977 v 0.207 l 0.196,0.004 v -0.211 z m 0,0.822 h 0.195 v -0.409 h -0.195 z m 1.655,0 v 0.619 h 0.19 v -0.205 h 0.221 v -0.194 h -0.208 v -0.22 z m 1.223,0.414 h 0.206 v -0.206 h -0.206 z"
           id="path50"
           inkscape:connector-curvature="0" />
      </g>
    </g>
  </g>
</svg>
